<svg width="512" height="512" viewBox="0 0 24 24" fill="none" xmlns="http://www.w3.org/2000/svg">
    <path fill-rule="evenodd" clip-rule="evenodd"
            d="M12.3172 3.63356C12.2235 3.45548 11.9685 3.45548 11.8748 3.63356L3.53115 19.4865C3.44354 19.653 3.56426 19.8529 3.75238 19.8529H6.71704L14.8705 8.78746C14.9274 8.71033 14.9351 8.60751 14.8905 8.52272L12.3172 3.63356ZM9.69241 18.3436L16.0781 9.67726C16.4759 9.13735 16.5302 8.41757 16.2179 7.8241L13.6446 2.93494C12.9885 1.68835 11.2035 1.68836 10.5474 2.93494L2.20378 18.7879C1.59044 19.9532 2.43549 21.3529 3.75238 21.3529H7.09602C7.22077 21.3529 7.34354 21.3218 7.45323 21.2624L12.8912 18.3168L14.7013 20.6699C15.0326 21.1006 15.5451 21.3529 16.0884 21.3529H20.5331C21.8102 21.3529 22.6572 20.0291 22.122 18.8696L20.2238 14.7566C19.8003 13.8391 18.6899 13.4699 17.8013 13.9512L9.69241 18.3436ZM14.2271 17.5932L15.8903 19.7553C15.9376 19.8169 16.0108 19.8529 16.0884 19.8529H20.5331C20.7156 19.8529 20.8366 19.6638 20.7601 19.4981L18.8618 15.3852C18.8013 15.2542 18.6427 15.2014 18.5158 15.2702L14.2271 17.5932Z"
            fill="#000000" />
</svg>