<svg xmlns="http://www.w3.org/2000/svg" version="1.1" width="512" height="512">
    <svg width="512" height="512" viewBox="0 0 512 512" fill="none"
            xmlns="http://www.w3.org/2000/svg">
        <g clip-path="url(#clip0_119_243)">
            <path fill-rule="evenodd" clip-rule="evenodd"
                    d="M260.409 53.2313C258.043 48.7365 251.607 48.7364 249.241 53.2313L38.6465 453.361C36.435 457.562 39.482 462.609 44.2304 462.609H119.059L324.854 183.316C326.288 181.37 326.484 178.774 325.357 176.634L260.409 53.2313ZM194.157 424.514L355.333 205.775C365.374 192.148 366.744 173.98 358.861 159.001L293.912 35.5981C277.352 4.13387 232.298 4.13407 215.738 35.5981L5.14337 435.727C-10.3374 465.141 10.9919 500.47 44.2304 500.47H128.624C131.773 500.47 134.872 499.684 137.64 498.185L274.896 423.838L320.583 483.23C328.944 494.1 341.88 500.47 355.593 500.47H467.778C500.013 500.47 521.391 467.057 507.883 437.789L459.97 333.979C449.281 310.82 421.255 301.502 398.828 313.65L194.157 424.514ZM308.613 405.574L350.592 460.147C351.786 461.699 353.634 462.609 355.593 462.609H467.778C472.383 462.609 475.437 457.836 473.507 453.655L425.595 349.845C424.068 346.536 420.064 345.205 416.86 346.941L308.613 405.574Z"
                    fill="#808080"></path>
        </g>
        <defs>
            <clipPath id="SvgjsClipPath1128">
                <rect width="512" height="512" fill="white"></rect>
            </clipPath>
        </defs>
    </svg>
    <style>@media (prefers-color-scheme: light) { :root { filter: none; } }
        @media (prefers-color-scheme: dark) { :root { filter: none; } }
    </style>
</svg>